# xmcd
#
# Track frame offsets:
#	150
#	17673
#	37263
#	55115
#	76737
#	96565
#	114950
#	129775
#	148970
#	166510
#	186083
#	203953
#	225571
#	245319
#	263719
#	278571
#
# Disc length: 3972 seconds
#
# Revision: 1
# Processed by: cddbd v1.5.1PL2 Copyright (c) Steve Scherf et al.
# Submitted via: audiograbber 1.83.01
#
DISCID=cf0f8210
DTITLE=Various Artist - Sc2291
DYEAR=1900
DGENRE=cou
TTITLE0=Henley, Don - For My Wedding
TTITLE1=Tritt, Travis - Best Of Intentions
TTITLE2=Herndon, Ty - Love Like That, A
TTITLE3=Gill, Vince - Feels Like Love
TTITLE4=Black, Clint - When I Said I Do
TTITLE5=McCoy, Neal - Forever Works For Me
TTITLE6=Brooks and Dunn - You'll Always Be Loved By Me
TTITLE7=Urban, Keith - Your Everything
TTITLE8=Henley, Don - For My Wedding
TTITLE9=Tritt, Travis - Best Of Intentions
TTITLE10=Herndon, Ty - Love Like That, A
TTITLE11=Gill, Vince - Feels Like Love
TTITLE12=Black, Clint - When I Said I Do
TTITLE13=McCoy, Neal - Forever Works For Me
TTITLE14=Brooks and Dunn - You'll Always Be Loved By Me
TTITLE15=Urban, Keith - Your Everything
EXTD=
EXTT0=
EXTT1=
EXTT2=
EXTT3=
EXTT4=
EXTT5=
EXTT6=
EXTT7=
EXTT8=
EXTT9=
EXTT10=
EXTT11=
EXTT12=
EXTT13=
EXTT14=
EXTT15=
PLAYORDER=
